<mxfile host="65bd71144e">
    <diagram id="9_vnpEN-FQi6p8BFnlTU" name="Page-1">
        <mxGraphModel dx="1266" dy="799" grid="1" gridSize="10" guides="1" tooltips="1" connect="1" arrows="1" fold="1" page="0" pageScale="1" pageWidth="850" pageHeight="1100" math="0" shadow="0">
            <root>
                <mxCell id="0"/>
                <mxCell id="1" parent="0"/>
                <mxCell id="5" value="utilisateurs" style="swimlane;whiteSpace=wrap;html=1;" vertex="1" parent="1">
                    <mxGeometry x="310" y="196" width="120" height="210" as="geometry"/>
                </mxCell>
                <mxCell id="24" value="" style="endArrow=none;html=1;" edge="1" parent="5">
                    <mxGeometry width="50" height="50" relative="1" as="geometry">
                        <mxPoint y="120" as="sourcePoint"/>
                        <mxPoint x="120" y="120" as="targetPoint"/>
                    </mxGeometry>
                </mxCell>
                <mxCell id="29" value="+Creat&lt;br&gt;+Read&lt;br&gt;+Update&lt;br&gt;+Delet" style="text;html=1;align=center;verticalAlign=middle;resizable=0;points=[];autosize=1;strokeColor=none;fillColor=none;" vertex="1" parent="5">
                    <mxGeometry x="20" y="128" width="70" height="70" as="geometry"/>
                </mxCell>
                <mxCell id="15" value="administrateur" style="swimlane;whiteSpace=wrap;html=1;" vertex="1" parent="1">
                    <mxGeometry x="600" y="196" width="122" height="198" as="geometry"/>
                </mxCell>
                <mxCell id="21" value="&lt;div style=&quot;direction: rtl;&quot;&gt;&lt;span style=&quot;background-color: initial;&quot;&gt;phone&lt;/span&gt;&lt;/div&gt;" style="text;html=1;strokeColor=none;fillColor=none;align=center;verticalAlign=middle;whiteSpace=wrap;rounded=0;" vertex="1" parent="15">
                    <mxGeometry x="26" y="48" width="60" height="30" as="geometry"/>
                </mxCell>
                <mxCell id="22" value="CIN" style="text;html=1;align=center;verticalAlign=middle;resizable=0;points=[];autosize=1;strokeColor=none;fillColor=none;" vertex="1" parent="15">
                    <mxGeometry x="36" y="90" width="40" height="30" as="geometry"/>
                </mxCell>
                <mxCell id="23" value="" style="endArrow=none;html=1;" edge="1" parent="1">
                    <mxGeometry width="50" height="50" relative="1" as="geometry">
                        <mxPoint x="600" y="360" as="sourcePoint"/>
                        <mxPoint x="720" y="360" as="targetPoint"/>
                    </mxGeometry>
                </mxCell>
                <mxCell id="25" value="personne" style="swimlane;whiteSpace=wrap;html=1;" vertex="1" parent="1">
                    <mxGeometry x="481" y="484" width="120" height="210" as="geometry"/>
                </mxCell>
                <mxCell id="30" value="id&lt;br&gt;" style="text;html=1;align=center;verticalAlign=middle;resizable=0;points=[];autosize=1;strokeColor=none;fillColor=none;" vertex="1" parent="25">
                    <mxGeometry x="30" y="16" width="30" height="30" as="geometry"/>
                </mxCell>
                <mxCell id="42" value="&lt;span style=&quot;&quot;&gt;FirstName&lt;/span&gt;" style="text;html=1;strokeColor=none;fillColor=none;align=center;verticalAlign=middle;whiteSpace=wrap;rounded=0;" vertex="1" parent="25">
                    <mxGeometry x="25" y="41" width="60" height="30" as="geometry"/>
                </mxCell>
                <mxCell id="43" value="&lt;span style=&quot;&quot;&gt;LastName&lt;/span&gt;" style="text;html=1;strokeColor=none;fillColor=none;align=center;verticalAlign=middle;whiteSpace=wrap;rounded=0;" vertex="1" parent="25">
                    <mxGeometry x="25" y="66" width="60" height="30" as="geometry"/>
                </mxCell>
                <mxCell id="46" value="&lt;span style=&quot;&quot;&gt;username&lt;/span&gt;" style="text;html=1;strokeColor=none;fillColor=none;align=center;verticalAlign=middle;whiteSpace=wrap;rounded=0;" vertex="1" parent="25">
                    <mxGeometry x="25" y="90" width="60" height="30" as="geometry"/>
                </mxCell>
                <mxCell id="47" value="&lt;span style=&quot;&quot;&gt;password&lt;/span&gt;" style="text;html=1;strokeColor=none;fillColor=none;align=center;verticalAlign=middle;whiteSpace=wrap;rounded=0;" vertex="1" parent="25">
                    <mxGeometry x="25" y="110" width="60" height="30" as="geometry"/>
                </mxCell>
                <mxCell id="48" value="role_id" style="text;html=1;align=center;verticalAlign=middle;resizable=0;points=[];autosize=1;strokeColor=none;fillColor=none;" vertex="1" parent="25">
                    <mxGeometry x="25" y="132" width="60" height="30" as="geometry"/>
                </mxCell>
                <mxCell id="26" value="" style="endArrow=none;html=1;" edge="1" parent="1">
                    <mxGeometry width="50" height="50" relative="1" as="geometry">
                        <mxPoint x="481" y="648.0000000000002" as="sourcePoint"/>
                        <mxPoint x="601" y="648.0000000000002" as="targetPoint"/>
                    </mxGeometry>
                </mxCell>
                <mxCell id="27" value="articles" style="swimlane;whiteSpace=wrap;html=1;" vertex="1" parent="1">
                    <mxGeometry x="650" y="770" width="120" height="170" as="geometry"/>
                </mxCell>
                <mxCell id="28" value="" style="endArrow=none;html=1;" edge="1" parent="27">
                    <mxGeometry width="50" height="50" relative="1" as="geometry">
                        <mxPoint y="140.00000000000023" as="sourcePoint"/>
                        <mxPoint x="120" y="140.00000000000023" as="targetPoint"/>
                    </mxGeometry>
                </mxCell>
                <mxCell id="52" value="titre" style="text;html=1;align=center;verticalAlign=middle;resizable=0;points=[];autosize=1;strokeColor=none;fillColor=none;" vertex="1" parent="27">
                    <mxGeometry x="35" y="50" width="40" height="30" as="geometry"/>
                </mxCell>
                <mxCell id="51" value="id" style="text;html=1;align=center;verticalAlign=middle;resizable=0;points=[];autosize=1;strokeColor=none;fillColor=none;" vertex="1" parent="27">
                    <mxGeometry x="40" y="26" width="30" height="30" as="geometry"/>
                </mxCell>
                <mxCell id="53" value="contenu" style="text;html=1;align=center;verticalAlign=middle;resizable=0;points=[];autosize=1;strokeColor=none;fillColor=none;" vertex="1" parent="27">
                    <mxGeometry x="20" y="70" width="70" height="30" as="geometry"/>
                </mxCell>
                <mxCell id="54" value="date_de_creation" style="text;html=1;align=center;verticalAlign=middle;resizable=0;points=[];autosize=1;strokeColor=none;fillColor=none;" vertex="1" parent="27">
                    <mxGeometry x="-5" y="90" width="120" height="30" as="geometry"/>
                </mxCell>
                <mxCell id="37" value="" style="endArrow=classic;html=1;" edge="1" parent="1">
                    <mxGeometry width="50" height="50" relative="1" as="geometry">
                        <mxPoint x="360" y="410" as="sourcePoint"/>
                        <mxPoint x="480" y="600" as="targetPoint"/>
                        <Array as="points">
                            <mxPoint x="360" y="600"/>
                        </Array>
                    </mxGeometry>
                </mxCell>
                <mxCell id="40" value="" style="endArrow=classic;html=1;" edge="1" parent="1">
                    <mxGeometry width="50" height="50" relative="1" as="geometry">
                        <mxPoint x="680" y="400" as="sourcePoint"/>
                        <mxPoint x="600" y="600" as="targetPoint"/>
                        <Array as="points">
                            <mxPoint x="680" y="600"/>
                        </Array>
                    </mxGeometry>
                </mxCell>
                <mxCell id="41" value="" style="endArrow=none;html=1;exitX=0.5;exitY=1;exitDx=0;exitDy=0;entryX=-0.01;entryY=0.809;entryDx=0;entryDy=0;entryPerimeter=0;" edge="1" parent="1" source="25">
                    <mxGeometry width="50" height="50" relative="1" as="geometry">
                        <mxPoint x="570" y="640" as="sourcePoint"/>
                        <mxPoint x="648.8000000000002" y="877.8100000000002" as="targetPoint"/>
                        <Array as="points">
                            <mxPoint x="540" y="878"/>
                        </Array>
                    </mxGeometry>
                </mxCell>
                <mxCell id="55" value="user_id" style="text;html=1;align=center;verticalAlign=middle;resizable=0;points=[];autosize=1;strokeColor=none;fillColor=none;" vertex="1" parent="1">
                    <mxGeometry x="670" y="883" width="60" height="30" as="geometry"/>
                </mxCell>
            </root>
        </mxGraphModel>
    </diagram>
</mxfile>